<svg id="Layer_1" data-name="Layer 1" xmlns="http://www.w3.org/2000/svg" viewBox="0 0 250.58 333.17"><title>ipd</title><path d="M1029.57,847.91h-5.43V718.49h5.43Z" transform="translate(-1020.3 -658.16)" style="fill:#0074bc"/><path d="M1069.22,718.49h40.21q19.34,0,29.73,10t10.39,27.64q0,17.53-10.39,27.45t-29.73,9.91h-34.78v54.41h-5.43Zm5.43,5.05v65h34.59q16.49,0,25.63-8.58t9.15-23.82q0-15.44-9.1-24t-25.68-8.58Z" transform="translate(-1020.3 -658.16)" style="fill:#0074bc"/><path d="M1264.29,751.18h-5.05a30.5,30.5,0,0,0-1.91-7.72,34.83,34.83,0,0,0-4.62-8.2,35.89,35.89,0,0,0-7.43-7.43,37,37,0,0,0-10.82-5.34,45.63,45.63,0,0,0-14.1-2.1q-20.3,0-31.3,13.67t-11,36.83v23a77.75,77.75,0,0,0,2.57,20.68,50.63,50.63,0,0,0,7.72,16.44A34.5,34.5,0,0,0,1201.92,842a45.66,45.66,0,0,0,19.58,4q17.44,0,28.3-9.29t10.86-25.78V791.68h-40.12v-5h45.17v24.21q0,19.06-12.39,29.54T1221.21,851A54,54,0,0,1,1203,848a40,40,0,0,1-13.77-8.05,44.49,44.49,0,0,1-9.39-12.34,58.77,58.77,0,0,1-5.48-15.63,91.06,91.06,0,0,1-1.72-18.15v-23q0-25.35,12.39-40.41t35.26-15.06a52.48,52.48,0,0,1,19,3.29,38.13,38.13,0,0,1,13.72,8.58,41,41,0,0,1,8.05,11.44A34.24,34.24,0,0,1,1264.29,751.18Z" transform="translate(-1020.3 -658.16)" style="fill:#0074bc"/><path d="M1022.94,899V858.32h5.16V899Z" transform="translate(-1020.3 -658.16)" style="fill:#ff0808"/><path d="M1038.54,868V899h-5.16V858.32h4L1062.63,890V858.37h5.16V899h-4.36Z" transform="translate(-1020.3 -658.16)" style="fill:#ff0808"/><path d="M1102.43,862.91h-14.05V899h-5.16V862.91h-14.05v-4.59h33.27Z" transform="translate(-1020.3 -658.16)" style="fill:#ff0808"/><path d="M1131.45,894.45V899h-27.65V858.32h27.13v4.59h-22V876.1h19.1v4.3H1109v14.05Z" transform="translate(-1020.3 -658.16)" style="fill:#ff0808"/><path d="M1134,899V858.32h17.44a11.05,11.05,0,0,1,5,1.12,12.48,12.48,0,0,1,3.9,3,14.25,14.25,0,0,1,2.55,4.19,12.79,12.79,0,0,1,.92,4.73,14,14,0,0,1-.6,4.1,12.68,12.68,0,0,1-1.72,3.58,11.54,11.54,0,0,1-2.7,2.75,10.5,10.5,0,0,1-3.53,1.66l9.86,15.6h-5.85L1150,884.41H1139.2V899Zm5.16-19.21h12.33a6.06,6.06,0,0,0,2.9-.69,6.89,6.89,0,0,0,2.21-1.86,9,9,0,0,0,1.43-2.72,10.08,10.08,0,0,0,.52-3.21,8.72,8.72,0,0,0-.6-3.24,9.54,9.54,0,0,0-1.61-2.7,7.28,7.28,0,0,0-2.35-1.83,6.38,6.38,0,0,0-2.84-.66h-12Z" transform="translate(-1020.3 -658.16)" style="fill:#ff0808"/><path d="M1172.4,868V899h-5.16V858.32h4L1196.49,890V858.37h5.16V899h-4.36Z" transform="translate(-1020.3 -658.16)" style="fill:#ff0808"/><path d="M1234.58,894.45V899h-27.65V858.32h27.13v4.59h-22V876.1h19.1v4.3h-19.1v14.05Z" transform="translate(-1020.3 -658.16)" style="fill:#ff0808"/><path d="M1266.52,862.91h-14.05V899h-5.16V862.91h-14.05v-4.59h33.27Z" transform="translate(-1020.3 -658.16)" style="fill:#ff0808"/><path d="M1022.94,945V904.32h17a11.05,11.05,0,0,1,5,1.12,12.48,12.48,0,0,1,3.9,3,14.25,14.25,0,0,1,2.55,4.19,12.79,12.79,0,0,1,.92,4.73,14.07,14.07,0,0,1-.86,4.88,13.44,13.44,0,0,1-2.44,4.19,11.85,11.85,0,0,1-3.79,2.93,10.93,10.93,0,0,1-4.9,1.09H1028.1V945Zm5.16-19.21H1040a6.28,6.28,0,0,0,2.9-.66,6.57,6.57,0,0,0,2.21-1.84,9,9,0,0,0,1.43-2.72,10.28,10.28,0,0,0,.52-3.27,9.15,9.15,0,0,0-2.21-6,7.12,7.12,0,0,0-2.35-1.78,6.63,6.63,0,0,0-2.84-.63H1028.1Z" transform="translate(-1020.3 -658.16)" style="fill:#ff0808"/><path d="M1064.63,904.32H1069L1085.63,945h-5.51l-4.82-11.93h-17.09L1053.45,945h-5.51Zm9.52,24.78-7.34-18.81-7.57,18.81Z" transform="translate(-1020.3 -658.16)" style="fill:#ff0808"/><path d="M1084.65,904.32,1097,925.54l12.45-21.22H1115l-15.49,25.87V945h-5.16v-15L1079,904.32Z" transform="translate(-1020.3 -658.16)" style="fill:#ff0808"/><path d="M1152.39,945V913.55l-13.54,24.15h-2.92l-13.59-24.15V945h-5.16V904.32h5.45l14.74,26.44,14.8-26.44h5.39V945Z" transform="translate(-1020.3 -658.16)" style="fill:#ff0808"/><path d="M1191.45,940.45V945H1163.8V904.32h27.13v4.59h-22V922.1h19.1v4.3H1169v14.05Z" transform="translate(-1020.3 -658.16)" style="fill:#ff0808"/><path d="M1200.16,914V945H1195V904.32h4L1224.25,936V904.37h5.16V945h-4.36Z" transform="translate(-1020.3 -658.16)" style="fill:#ff0808"/><path d="M1265,908.91H1251V945h-5.16V908.91h-14.05v-4.59H1265Z" transform="translate(-1020.3 -658.16)" style="fill:#ff0808"/><path d="M1051.67,985.53q-5.39,5.79-12.39,5.79a16.29,16.29,0,0,1-7.54-1.78,19.88,19.88,0,0,1-6-4.67,22.46,22.46,0,0,1-4-6.62,20.86,20.86,0,0,1-1.46-7.69,21.6,21.6,0,0,1,5.39-14.37,18.73,18.73,0,0,1,6-4.5,17.41,17.41,0,0,1,7.57-1.66,17.6,17.6,0,0,1,9.72,2.47,16.36,16.36,0,0,1,5.82,6.42l-4,2.75a12.37,12.37,0,0,0-4.88-5.28,13.62,13.62,0,0,0-6.83-1.72,11.75,11.75,0,0,0-5.62,1.35,13.84,13.84,0,0,0-4.3,3.56,16.4,16.4,0,0,0-2.75,5.1,18.65,18.65,0,0,0-1,6,17.35,17.35,0,0,0,1.09,6.17,16.9,16.9,0,0,0,3,5.1,13.82,13.82,0,0,0,4.47,3.47,12.61,12.61,0,0,0,5.62,1.26q6.65,0,12-6.42v-5.62h-8.78v-3.9H1056V991h-4.36Z" transform="translate(-1020.3 -658.16)" style="fill:#ff0808"/><path d="M1072.78,950.32h4.36L1093.77,991h-5.51l-4.82-11.93h-17.09L1061.59,991h-5.51Zm9.52,24.78L1075,956.28l-7.57,18.81Z" transform="translate(-1020.3 -658.16)" style="fill:#ff0808"/><path d="M1121.24,954.91h-14.05V991H1102V954.91H1088v-4.59h33.27Z" transform="translate(-1020.3 -658.16)" style="fill:#ff0808"/><path d="M1151.24,986.45V991H1123.6V950.32h27.13v4.59h-22V968.1h19.1v4.3h-19.1v14.05Z" transform="translate(-1020.3 -658.16)" style="fill:#ff0808"/><path d="M1169.71,950.55h4.88l5.39,14.17,5.45-14.17h4.88l-7.05,17.72,7,16.8L1204,950.32h5.62l-17,40.72h-4.47L1180,971.83,1171.89,991h-4.47l-17-40.72H1156l13.82,34.76,6.94-16.8Z" transform="translate(-1020.3 -658.16)" style="fill:#ff0808"/><path d="M1220.47,950.32h4.36L1241.46,991H1236l-4.82-11.93H1214L1209.28,991h-5.51Zm9.52,24.78-7.34-18.81-7.57,18.81Z" transform="translate(-1020.3 -658.16)" style="fill:#ff0808"/><path d="M1240.48,950.32l12.33,21.22,12.45-21.22h5.62l-15.49,25.87V991h-5.16v-15l-15.43-25.75Z" transform="translate(-1020.3 -658.16)" style="fill:#ff0808"/><path d="M1120,709.31c.39-.21.79-.59,1.18-.59,1.67,0,2.41-.94,2.82-2.41,1.94-7,3.93-13.9,5.86-20.86.66-2.39.56-2.46-2.65-3,.65-.5,1-1,1.41-1.06,2.59-.51,5.19-.93,7.86-1.4l-.79,2.88.29.34c1.15-.7,2.33-1.35,3.44-2.1a7.59,7.59,0,0,1,7.14-.9,4.24,4.24,0,0,1,3.19,4.39,13.34,13.34,0,0,1-5.29,10.89,65.51,65.51,0,0,1-6.68,4.37,5.9,5.9,0,0,1-5.49.29c-1-.41-1.49-.1-1.72.93-.39,1.75-.81,3.49-1.29,5.22-.4,1.45.07,2.17,1.57,2.35.39,0,.74.41,1.1.62a3.5,3.5,0,0,1-1.19.52c-3.52,0-7,0-10.57,0Zm24.06-21.84a3.71,3.71,0,0,0-1.93-4c-2.57-1.33-7,.64-7.7,3.42q-.94,3.54-1.91,7.08c-.63,2.28.29,3.91,2.67,4.36,2.75.53,4.74-.87,6.27-2.93A14.67,14.67,0,0,0,1144.06,687.47Z" transform="translate(-1020.3 -658.16)" style="fill:#0074bc"/><path d="M1163,676.51a13.08,13.08,0,0,1-7.19-2.54,8.18,8.18,0,0,1-.08-13.39,12.32,12.32,0,0,1,14.2-.34c2.71,1.93,4.31,4.53,3.86,7.92-.5,3.76-2.93,6.1-6.37,7.36A32.07,32.07,0,0,1,1163,676.51Zm1.78-7.75a6.27,6.27,0,0,0-5.62,1.26,2.6,2.6,0,0,0-.11,4c2,2,6.58,2,8.52-.08a2.37,2.37,0,0,0,.57-3,27.54,27.54,0,0,1-3.39,2.75,2.18,2.18,0,0,1-2-.42,2,2,0,0,1-.13-1.9A18.54,18.54,0,0,1,1164.78,668.76Z" transform="translate(-1020.3 -658.16)" style="fill:#ed1c24"/><path d="M1120.08,697.3a11.63,11.63,0,0,1-12.7,2.76,5,5,0,0,1-3.57-4.78c-.34-9,4.73-14.41,13.2-15.46,6.34-.79,7.52,3.63,6.05,8.55a1.83,1.83,0,0,1-1.35.93c-3.29.28-6.6.49-9.9.63-2.39.1-2.7.36-2.58,2.76.17,3.62,2.86,5.78,6.58,5.19,1.32-.21,2.61-.64,3.92-1ZM1110,688.19c2.56,0,4.86,0,7.16,0a1,1,0,0,0,.58-.24c.94-.8,1.17-4.18.38-5.25a3.45,3.45,0,0,0-4.45-.57C1111.55,683.42,1110.68,685.53,1110,688.19Z" transform="translate(-1020.3 -658.16)" style="fill:#0074bc"/><path d="M1186,680.42c-.86,2.13-1.57,4-2.37,5.82-.14.31-.62.47-.95.69a3,3,0,0,1-.39-1.09c.16-2.35-.61-3.29-2.94-3.39a5.26,5.26,0,0,0-5,2.26,13.84,13.84,0,0,0-2.3,7.88c.06,3.76,2.69,5.79,6.48,5.29a8.85,8.85,0,0,1,2.65-.13c-.65.64-1.18,1.56-2,1.87a12.31,12.31,0,0,1-9.54.25,4.76,4.76,0,0,1-3.26-4.79c.1-5.36,1.85-9.8,7-12.33,2.76-1.36,5.28-3.4,8.62-3.05C1183.32,679.83,1184.56,680.15,1186,680.42Z" transform="translate(-1020.3 -658.16)" style="fill:#0074bc"/><path d="M1153.56,681.81l9.23-1.85c-.36,1.24-.72,2.4-1,3.57-1.24,4.5-2.46,9-3.71,13.5-.37,1.32,0,2.1,1.45,2.26.34,0,.64.49,1,.75-.37.21-.75.6-1.12.61-3.2,0-6.41,0-9.61,0-.26,0-.52-.37-.78-.56.23-.25.49-.73.68-.71,2.85.36,3.27-1.77,3.81-3.71q1.4-5.1,2.69-10.23c.57-2.25.47-2.33-1.81-2.68a3.4,3.4,0,0,1-.69-.27Z" transform="translate(-1020.3 -658.16)" style="fill:#0074bc"/></svg>