<svg id="Layer_1" data-name="Layer 1" xmlns="http://www.w3.org/2000/svg" viewBox="0 0 341 364"><title>enter</title><path d="M0,294H341a0,0,0,0,1,0,0v45.5A24.5,24.5,0,0,1,316.5,364H24.5A24.5,24.5,0,0,1,0,339.5V294a0,0,0,0,1,0,0Z" style="fill:#90a4ae"/><path d="M544.5,261v93A24.5,24.5,0,0,1,520,378.5H428A24.5,24.5,0,0,0,403.5,403V540A24.5,24.5,0,0,0,428,564.5H720A24.5,24.5,0,0,0,744.5,540V261A24.5,24.5,0,0,0,720,236.5H569A24.5,24.5,0,0,0,544.5,261Z" transform="translate(-403.5 -236.5)" style="fill:#cfd8dc"/><polygon points="224.5 78.5 224.5 209.5 174.24 209.5 174.31 186.87 116.09 220.25 174.11 253.97 174.17 233.5 241.5 233.5 248.5 233.5 248.5 78.5 224.5 78.5"/></svg>